<svg width="32" height="32" viewBox="0 0 32 32" fill="none" xmlns="http://www.w3.org/2000/svg">
<path d="M23.9997 15.9994C23.9932 15.298 23.7105 14.6273 23.213 14.1328L17.493 8.39944C17.2432 8.15111 16.9053 8.01172 16.553 8.01172C16.2008 8.01172 15.8628 8.15111 15.613 8.39944C15.488 8.52339 15.3888 8.67086 15.3212 8.83334C15.2535 8.99582 15.2186 9.17009 15.2186 9.34611C15.2186 9.52212 15.2535 9.6964 15.3212 9.85888C15.3888 10.0214 15.488 10.1688 15.613 10.2928L19.9997 14.6661H6.66634C6.31272 14.6661 5.97358 14.8066 5.72353 15.0566C5.47348 15.3067 5.33301 15.6458 5.33301 15.9994C5.33301 16.3531 5.47348 16.6922 5.72353 16.9422C5.97358 17.1923 6.31272 17.3328 6.66634 17.3328H19.9997L15.613 21.7194C15.3619 21.9687 15.2202 22.3076 15.2189 22.6614C15.2177 23.0152 15.357 23.355 15.6063 23.6061C15.8556 23.8572 16.1945 23.9989 16.5483 24.0002C16.9021 24.0014 17.2419 23.8621 17.493 23.6128L23.213 17.8794C23.7138 17.3816 23.9967 16.7055 23.9997 15.9994Z" fill="#33B786"/>
</svg>
