<svg width="16" height="16" viewBox="0 0 16 16" fill="none" xmlns="http://www.w3.org/2000/svg">
<path d="M12.4735 5.47259C12.4116 5.4101 12.3378 5.36051 12.2566 5.32666C12.1753 5.29282 12.0882 5.27539 12.0002 5.27539C11.9122 5.27539 11.8251 5.29282 11.7438 5.32666C11.6626 5.36051 11.5888 5.4101 11.5269 5.47259L8.47354 8.52592C8.41156 8.5884 8.33783 8.638 8.25659 8.67184C8.17535 8.70569 8.08821 8.72311 8.0002 8.72311C7.9122 8.72311 7.82506 8.70569 7.74382 8.67184C7.66258 8.638 7.58884 8.5884 7.52687 8.52592L4.47354 5.47259C4.41156 5.4101 4.33783 5.36051 4.25659 5.32666C4.17535 5.29282 4.08821 5.27539 4.0002 5.27539C3.91219 5.27539 3.82506 5.29282 3.74382 5.32666C3.66258 5.36051 3.58884 5.4101 3.52687 5.47259C3.4027 5.5975 3.33301 5.76646 3.33301 5.94259C3.33301 6.11871 3.4027 6.28768 3.52687 6.41259L6.58687 9.47258C6.96187 9.84711 7.4702 10.0575 8.0002 10.0575C8.5302 10.0575 9.03854 9.84711 9.41354 9.47258L12.4735 6.41259C12.5977 6.28768 12.6674 6.11871 12.6674 5.94259C12.6674 5.76646 12.5977 5.5975 12.4735 5.47259Z" fill="#555555"/>
</svg>
