<svg width="16" height="16" viewBox="0 0 16 16" fill="none" xmlns="http://www.w3.org/2000/svg">
<g clip-path="url(#clip0_1007_16537)">
<path d="M15.514 6.27826C14.9122 5.29274 14.153 4.41243 13.2667 3.67226L15.1334 1.80559C15.2548 1.67985 15.322 1.51145 15.3205 1.33666C15.319 1.16186 15.2489 0.994649 15.1252 0.871043C15.0016 0.747438 14.8344 0.677325 14.6596 0.675806C14.4848 0.674288 14.3164 0.741484 14.1907 0.862923L12.1607 2.89559C10.9023 2.14814 9.46365 1.75857 8.00003 1.76892C3.8727 1.76892 1.5207 4.59426 0.486034 6.27826C0.166386 6.79526 -0.00292969 7.39108 -0.00292969 7.99892C-0.00292969 8.60676 0.166386 9.20259 0.486034 9.71959C1.08787 10.7051 1.84703 11.5854 2.73337 12.3256L0.866701 14.1923C0.803027 14.2538 0.752239 14.3273 0.7173 14.4087C0.682361 14.49 0.66397 14.5775 0.663201 14.666C0.662431 14.7545 0.679299 14.8423 0.71282 14.9242C0.74634 15.0062 0.795842 15.0806 0.858438 15.1432C0.921033 15.2058 0.995467 15.2553 1.0774 15.2888C1.15933 15.3223 1.24712 15.3392 1.33564 15.3384C1.42415 15.3377 1.51163 15.3193 1.59297 15.2843C1.67431 15.2494 1.74787 15.1986 1.80937 15.1349L3.84403 13.1003C5.10088 13.8476 6.53782 14.2378 8.00003 14.2289C12.1274 14.2289 14.4794 11.4036 15.514 9.71959C15.8337 9.20259 16.003 8.60676 16.003 7.99892C16.003 7.39108 15.8337 6.79526 15.514 6.27826ZM1.62203 9.02159C1.43212 8.71429 1.33153 8.36017 1.33153 7.99892C1.33153 7.63767 1.43212 7.28356 1.62203 6.97626C2.51137 5.53226 4.52137 3.10226 8.00003 3.10226C9.10688 3.09606 10.1982 3.36281 11.1774 3.87892L9.83537 5.22092C9.19532 4.79599 8.42797 4.60559 7.66352 4.68202C6.89907 4.75845 6.18461 5.09701 5.64137 5.64026C5.09813 6.1835 4.75956 6.89796 4.68313 7.66241C4.6067 8.42686 4.7971 9.19421 5.22203 9.83426L3.68203 11.3743C2.86544 10.7141 2.16859 9.91822 1.62203 9.02159ZM10 7.99892C10 8.52936 9.78932 9.03806 9.41425 9.41314C9.03918 9.78821 8.53047 9.99892 8.00003 9.99892C7.70304 9.99777 7.41017 9.9294 7.14337 9.79892L9.80003 7.14226C9.93051 7.40905 9.99889 7.70193 10 7.99892ZM6.00003 7.99892C6.00003 7.46849 6.21075 6.95978 6.58582 6.58471C6.96089 6.20964 7.4696 5.99892 8.00003 5.99892C8.29703 6.00007 8.5899 6.06845 8.8567 6.19892L6.20003 8.85559C6.06956 8.58879 6.00118 8.29591 6.00003 7.99892ZM14.378 9.02159C13.4887 10.4656 11.4787 12.8956 8.00003 12.8956C6.89319 12.9018 5.80188 12.635 4.8227 12.1189L6.1647 10.7769C6.80475 11.2019 7.5721 11.3923 8.33655 11.3158C9.101 11.2394 9.81546 10.9008 10.3587 10.3576C10.9019 9.81435 11.2405 9.09988 11.3169 8.33543C11.3934 7.57098 11.203 6.80363 10.778 6.16359L12.318 4.62359C13.1346 5.28378 13.8315 6.07962 14.378 6.97626C14.5679 7.28356 14.6685 7.63767 14.6685 7.99892C14.6685 8.36017 14.5679 8.71429 14.378 9.02159Z" fill="#555555"/>
</g>
<defs>
<clipPath id="clip0_1007_16537">
<rect width="16" height="16" fill="white"/>
</clipPath>
</defs>
</svg>
