<svg width="16" height="16" viewBox="0 0 16 16" fill="none" xmlns="http://www.w3.org/2000/svg">
<g clip-path="url(#clip0_1007_18391)">
<path d="M15.514 6.27886C14.48 4.59486 12.128 1.76953 8.00003 1.76953C3.87203 1.76953 1.52003 4.59486 0.486034 6.27886C0.166386 6.79587 -0.00292969 7.39169 -0.00292969 7.99953C-0.00292969 8.60737 0.166386 9.20319 0.486034 9.7202C1.52003 11.4042 3.87203 14.2295 8.00003 14.2295C12.128 14.2295 14.48 11.4042 15.514 9.7202C15.8337 9.20319 16.003 8.60737 16.003 7.99953C16.003 7.39169 15.8337 6.79587 15.514 6.27886ZM14.3774 9.0222C13.4894 10.4662 11.4794 12.8962 8.00003 12.8962C4.5207 12.8962 2.5107 10.4662 1.6227 9.0222C1.43279 8.7149 1.3322 8.36078 1.3322 7.99953C1.3322 7.63828 1.43279 7.28417 1.6227 6.97686C2.5107 5.53286 4.5207 3.10286 8.00003 3.10286C11.4794 3.10286 13.4894 5.5302 14.3774 6.97686C14.5673 7.28417 14.6679 7.63828 14.6679 7.99953C14.6679 8.36078 14.5673 8.7149 14.3774 9.0222Z" fill="#555555"/>
<path d="M8.00033 4.66602C7.34106 4.66602 6.69659 4.86151 6.14843 5.22778C5.60026 5.59405 5.17302 6.11465 4.92073 6.72374C4.66844 7.33283 4.60243 8.00305 4.73104 8.64965C4.85966 9.29625 5.17713 9.8902 5.6433 10.3564C6.10948 10.8225 6.70342 11.14 7.35003 11.2686C7.99663 11.3973 8.66685 11.3312 9.27594 11.0789C9.88503 10.8267 10.4056 10.3994 10.7719 9.85125C11.1382 9.30309 11.3337 8.65862 11.3337 7.99935C11.3326 7.11562 10.9811 6.26839 10.3562 5.6435C9.73129 5.0186 8.88406 4.66707 8.00033 4.66602ZM8.00033 9.99935C7.60476 9.99935 7.21808 9.88205 6.88919 9.66229C6.56029 9.44253 6.30394 9.13017 6.15257 8.76472C6.00119 8.39926 5.96159 7.99713 6.03876 7.60917C6.11593 7.22121 6.30641 6.86484 6.58611 6.58514C6.86582 6.30543 7.22218 6.11495 7.61015 6.03778C7.99811 5.96061 8.40024 6.00021 8.76569 6.15159C9.13115 6.30297 9.4435 6.55931 9.66327 6.88821C9.88303 7.21711 10.0003 7.60379 10.0003 7.99935C10.0003 8.52978 9.78961 9.03849 9.41454 9.41356C9.03947 9.78864 8.53076 9.99935 8.00033 9.99935Z" fill="#555555"/>
</g>
<defs>
<clipPath id="clip0_1007_18391">
<rect width="16" height="16" fill="white"/>
</clipPath>
</defs>
</svg>
