<svg width="24" height="24" viewBox="0 0 24 24" fill="none" xmlns="http://www.w3.org/2000/svg">
<g clip-path="url(#clip0_1007_16582)">
<path d="M22.5545 13.6617L20.6545 6.82569C20.0976 4.82302 18.8872 3.06398 17.2158 1.82816C15.5444 0.592343 13.5079 -0.0493232 11.43 0.00515695C9.35201 0.0596371 7.3519 0.807137 5.74756 2.12884C4.14321 3.45054 3.0267 5.27059 2.57549 7.29969L1.10449 13.9147C0.942009 14.6456 0.945766 15.4037 1.11549 16.133C1.28521 16.8623 1.61656 17.5442 2.08508 18.1282C2.55359 18.7123 3.14731 19.1837 3.8224 19.5076C4.4975 19.8316 5.23672 19.9997 5.98549 19.9997H7.09949C7.32901 21.13 7.94222 22.1462 8.83524 22.8761C9.72825 23.606 10.8461 24.0047 11.9995 24.0047C13.1528 24.0047 14.2707 23.606 15.1638 22.8761C16.0568 22.1462 16.67 21.13 16.8995 19.9997H17.7375C18.5083 19.9997 19.2687 19.8216 19.9592 19.4791C20.6498 19.1367 21.2518 18.6392 21.7183 18.0256C22.1848 17.4119 22.5031 16.6987 22.6483 15.9417C22.7935 15.1847 22.7618 14.4044 22.5555 13.6617H22.5545ZM11.9995 21.9997C11.3812 21.9971 10.7789 21.8036 10.2748 21.4456C9.77073 21.0876 9.38958 20.5826 9.18349 19.9997H14.8155C14.6094 20.5826 14.2283 21.0876 13.7242 21.4456C13.2201 21.8036 12.6178 21.9971 11.9995 21.9997ZM20.1255 16.8147C19.8468 17.1844 19.4858 17.4839 19.0711 17.6897C18.6564 17.8954 18.1994 18.0015 17.7365 17.9997H5.98549C5.53628 17.9996 5.09281 17.8987 4.68783 17.7043C4.28286 17.5099 3.9267 17.227 3.64566 16.8766C3.36461 16.5261 3.16585 16.1171 3.06406 15.6795C2.96226 15.242 2.96001 14.7872 3.05749 14.3487L4.52749 7.73269C4.88185 6.1389 5.7588 4.70929 7.01895 3.67114C8.2791 2.63298 9.85012 2.04586 11.4823 2.0031C13.1144 1.96035 14.714 2.46441 16.0268 3.43516C17.3396 4.40591 18.2902 5.78764 18.7275 7.36069L20.6275 14.1967C20.753 14.6421 20.773 15.1106 20.6859 15.565C20.5988 16.0195 20.4069 16.4473 20.1255 16.8147Z" fill="#252525"/>
</g>
<circle cx="19" cy="4" r="4" fill="#E74F5B"/>
<defs>
<clipPath id="clip0_1007_16582">
<rect width="24" height="24" fill="white"/>
</clipPath>
</defs>
</svg>
