<svg width="40" height="40" viewBox="0 0 40 40" fill="none" xmlns="http://www.w3.org/2000/svg">
<path d="M30.0003 20.0003C29.9922 19.1234 29.6389 18.2851 29.017 17.6669L21.867 10.5003C21.5547 10.1899 21.1323 10.0156 20.692 10.0156C20.2517 10.0156 19.8293 10.1899 19.517 10.5003C19.3608 10.6552 19.2368 10.8396 19.1522 11.0427C19.0676 11.2457 19.024 11.4636 19.024 11.6836C19.024 11.9036 19.0676 12.1215 19.1522 12.3246C19.2368 12.5277 19.3608 12.712 19.517 12.8669L25.0003 18.3336H8.33366C7.89163 18.3336 7.46771 18.5092 7.15515 18.8218C6.84259 19.1343 6.66699 19.5582 6.66699 20.0003C6.66699 20.4423 6.84259 20.8662 7.15515 21.1788C7.46771 21.4913 7.89163 21.6669 8.33366 21.6669H25.0003L19.517 27.1503C19.2032 27.4619 19.026 27.8854 19.0244 28.3277C19.0228 28.77 19.197 29.1948 19.5087 29.5086C19.8203 29.8224 20.2438 29.9996 20.6861 30.0012C21.1284 30.0028 21.5532 29.8286 21.867 29.5169L29.017 22.3503C29.643 21.728 29.9966 20.8829 30.0003 20.0003Z" fill="#33B786"/>
</svg>
