<svg width="39" height="32" viewBox="0 0 39 32" fill="none" xmlns="http://www.w3.org/2000/svg">
<path d="M20.2347 11.7145H9.58466L13.0885 8.21067C13.1883 8.11166 13.2676 7.99387 13.3216 7.86409C13.3757 7.73431 13.4035 7.59511 13.4035 7.45452C13.4035 7.31392 13.3757 7.17472 13.3216 7.04494C13.2676 6.91516 13.1883 6.79737 13.0885 6.69837C12.889 6.50001 12.619 6.38867 12.3377 6.38867C12.0563 6.38867 11.7864 6.50001 11.5869 6.69837L7.018 11.2779C6.618 11.6755 6.39203 12.2155 6.38965 12.7795C6.39483 13.3398 6.62059 13.8755 7.018 14.2705L11.5869 18.85C11.6862 18.9486 11.8039 19.0267 11.9334 19.0798C12.0629 19.1329 12.2015 19.16 12.3415 19.1595C12.4814 19.159 12.6199 19.1309 12.749 19.0769C12.878 19.0229 12.9952 18.944 13.0938 18.8447C13.1924 18.7454 13.2705 18.6277 13.3236 18.4982C13.3767 18.3687 13.4038 18.23 13.4033 18.0901C13.4028 17.9502 13.3747 17.8117 13.3207 17.6826C13.2667 17.5535 13.1878 17.4363 13.0885 17.3377L9.58466 13.8445H20.2347C20.5171 13.8445 20.788 13.7323 20.9878 13.5326C21.1875 13.3329 21.2997 13.062 21.2997 12.7795C21.2997 12.4971 21.1875 12.2262 20.9878 12.0265C20.788 11.8267 20.5171 11.7145 20.2347 11.7145Z" fill="#555555"/>
<path d="M32.1698 18.7806C32.1646 18.2203 31.9389 17.6846 31.5414 17.2896L26.9726 12.7101C26.773 12.5117 26.5031 12.4004 26.2218 12.4004C25.9404 12.4004 25.6705 12.5117 25.4709 12.7101C25.3711 12.8091 25.2919 12.9269 25.2378 13.0567C25.1837 13.1864 25.1559 13.3256 25.1559 13.4662C25.1559 13.6068 25.1837 13.746 25.2378 13.8758C25.2919 14.0056 25.3711 14.1234 25.4709 14.2224L28.9748 17.7156H18.3248C18.0423 17.7156 17.7714 17.8278 17.5717 18.0275C17.372 18.2273 17.2598 18.4981 17.2598 18.7806C17.2598 19.063 17.372 19.3339 17.5717 19.5337C17.7714 19.7334 18.0423 19.8456 18.3248 19.8456H28.9748L25.4709 23.3495C25.2704 23.5486 25.1572 23.8192 25.1562 24.1018C25.1552 24.3844 25.2665 24.6559 25.4656 24.8564C25.6647 25.057 25.9354 25.1702 26.218 25.1712C26.5006 25.1722 26.772 25.0609 26.9726 24.8618L31.5414 20.2822C31.9415 19.8846 32.1674 19.3446 32.1698 18.7806Z" fill="#555555"/>
</svg>
